<?xml version="1.0" encoding="UTF-8"?>
<svg width="70px" height="23px" viewBox="0 0 70 23" version="1.1" xmlns="http://www.w3.org/2000/svg" xmlns:xlink="http://www.w3.org/1999/xlink">
    <!-- Generator: Sketch 51.3 (57544) - http://www.bohemiancoding.com/sketch -->
    <title>Group 2</title>
    <desc>Created with Sketch.</desc>
    <defs></defs>
    <g id="Symbols" stroke="none" stroke-width="1" fill="none" fill-rule="evenodd">
        <g id="framework/dark" transform="translate(-29.000000, -29.000000)" stroke="#FFFFFF" stroke-width="0.75">
            <g id="Group-2" transform="translate(30.000000, 30.000000)">
                <g id="Group">
                    <path d="M33.8683529,0.392127273 C33.5573725,0.0812636364 33.0526667,0.0812636364 32.7420049,0.392127273 L23.1831814,9.93758182 C22.9553627,10.1650818 22.8871765,10.5071273 23.0104853,10.8046273 C23.1337941,11.1014909 23.4240637,11.2955818 23.7461961,11.2955818 L26.7731569,11.2955818 L26.7731569,20.0455818 C26.7731569,20.4846727 27.1300196,20.8410364 27.5697255,20.8410364 L39.0403137,20.8410364 C39.4803382,20.8410364 39.8368824,20.4846727 39.8368824,20.0455818 L39.8368824,11.2955818 L42.8638431,11.2955818 C43.1859755,11.2955818 43.4765637,11.1014909 43.5998725,10.8046273 C43.7231814,10.5071273 43.6549951,10.1650818 43.4271765,9.93758182 L33.8683529,0.392127273 Z" id="Stroke-1"></path>
                    <g id="Group-3" transform="translate(47.000000, 0.000000)">
                        <path d="M4.75,0.159090909 L0.926470588,0.159090909 C0.486446078,0.159090909 0.129901961,0.515136364 0.129901961,0.954545455 L0.129901961,20.0454545 C0.129901961,20.4848636 0.486446078,20.8409091 0.926470588,20.8409091 L4.75,20.8409091 C5.19002451,20.8409091 5.54656863,20.4848636 5.54656863,20.0454545 L5.54656863,0.954545455 C5.54656863,0.515136364 5.19002451,0.159090909 4.75,0.159090909 Z" id="Stroke-3"></path>
                        <path d="M12.3970588,0.159090909 L8.57352941,0.159090909 C8.1335049,0.159090909 7.77696078,0.515136364 7.77696078,0.954545455 L7.77696078,20.0454545 C7.77696078,20.4848636 8.1335049,20.8409091 8.57352941,20.8409091 L12.3970588,20.8409091 C12.8370833,20.8409091 13.1936275,20.4848636 13.1936275,20.0454545 L13.1936275,0.954545455 C13.1936275,0.515136364 12.8370833,0.159090909 12.3970588,0.159090909 Z" id="Stroke-5"></path>
                        <path d="M20.0441176,0.159090909 L16.2205882,0.159090909 C15.7805637,0.159090909 15.4240196,0.515136364 15.4240196,0.954545455 L15.4240196,20.0454545 C15.4240196,20.4848636 15.7805637,20.8409091 16.2205882,20.8409091 L20.0441176,20.8409091 C20.4841422,20.8409091 20.8406863,20.4848636 20.8406863,20.0454545 L20.8406863,0.954545455 C20.8406863,0.515136364 20.4841422,0.159090909 20.0441176,0.159090909 Z" id="Stroke-7"></path>
                    </g>
                    <path d="M7.61516422,7.60467273 L3.88722304,7.60467273 C1.83175735,7.60467273 0.159281863,5.93453636 0.159281863,3.88194545 C0.159281863,1.82935455 1.83175735,0.159218182 3.88722304,0.159218182 C5.94268873,0.159218182 7.61516422,1.82935455 7.61516422,3.88194545 L7.61516422,7.60467273 Z" id="Stroke-9"></path>
                    <path d="M17.1420931,7.60467273 L13.414152,7.60467273 L13.414152,3.88194545 C13.414152,1.82935455 15.0866275,0.159218182 17.1420931,0.159218182 C19.1978775,0.159218182 20.8700343,1.82935455 20.8700343,3.88194545 C20.8700343,5.93453636 19.1978775,7.60467273 17.1420931,7.60467273 Z" id="Stroke-11"></path>
                    <path d="M17.1420931,20.8409091 C15.0866275,20.8409091 13.414152,19.1707727 13.414152,17.1181818 L13.414152,13.3954545 L17.1420931,13.3954545 C19.1978775,13.3954545 20.8700343,15.0655909 20.8700343,17.1181818 C20.8700343,19.1707727 19.1978775,20.8409091 17.1420931,20.8409091 Z" id="Stroke-13"></path>
                    <path d="M3.88731863,20.8409091 C1.83153431,20.8409091 0.159377451,19.1707727 0.159377451,17.1181818 C0.159377451,15.0655909 1.83153431,13.3954545 3.88731863,13.3954545 L7.6152598,13.3954545 L7.6152598,17.1181818 C7.6152598,19.1707727 5.94278431,20.8409091 3.88731863,20.8409091 Z" id="Stroke-15"></path>
                    <polygon id="Stroke-17" points="7.61519608 13.3954545 13.4142157 13.3954545 13.4142157 7.60486364 7.61519608 7.60486364"></polygon>
                </g>
            </g>
        </g>
    </g>
</svg>