<svg xmlns="http://www.w3.org/2000/svg" xmlns:xlink="http://www.w3.org/1999/xlink" version="1.1" x="0px" y="0px" viewBox="0 0 100 125" enable-background="new 0 0 100 100" xml:space="preserve">
<path fill="#000000" d="M27.652,72.943c0.352,0.352,0.812,0.527,1.272,0.527c0.46,0,0.921-0.176,1.272-0.527l20.037-20.032  l20.038,20.032c0.352,0.352,0.812,0.527,1.273,0.527c0.46,0,0.921-0.176,1.272-0.527c0.703-0.703,0.703-1.843,0-2.545L52.781,50.367  l20.037-20.032c0.703-0.702,0.703-1.843,0-2.546s-1.843-0.703-2.546,0L50.234,47.821L30.197,27.789  c-0.703-0.703-1.842-0.703-2.545,0s-0.703,1.844,0,2.546l20.037,20.032L27.652,70.398C26.949,71.101,26.949,72.24,27.652,72.943z"/>
</svg>