<?xml version="1.0" encoding="UTF-8"?>
<svg width="36px" height="20px" viewBox="0 0 36 20" version="1.1" xmlns="http://www.w3.org/2000/svg" xmlns:xlink="http://www.w3.org/1999/xlink">
    <!-- Generator: Sketch 52.2 (67145) - http://www.bohemiancoding.com/sketch -->
    <title>grid 2</title>
    <desc>Created with Sketch.</desc>
    <g id="Symbols" stroke="none" stroke-width="1" fill="none" fill-rule="evenodd">
        <g id="framework/dark" transform="translate(-1214.000000, -690.000000)" stroke="#FFFFFF">
            <g id="view" transform="translate(1158.000000, 690.000000)">
                <g id="grid-2" transform="translate(56.000000, 0.000000)">
                    <g id="grid">
                        <path d="M0.5,0.5 L0.5,7.5 L9.5,7.5 L9.5,0.5 L0.5,0.5 Z" id="Rectangle-2-Copy"></path>
                        <path d="M0.5,12.5 L0.5,19.5 L9.5,19.5 L9.5,12.5 L0.5,12.5 Z" id="Rectangle-2-Copy-4"></path>
                        <path d="M13.5,0.5 L13.5,7.5 L22.5,7.5 L22.5,0.5 L13.5,0.5 Z" id="Rectangle-2-Copy-2"></path>
                        <path d="M13.5,12.5 L13.5,19.5 L22.5,19.5 L22.5,12.5 L13.5,12.5 Z" id="Rectangle-2-Copy-5"></path>
                        <path d="M26.5,0.5 L26.5,7.5 L35.5,7.5 L35.5,0.5 L26.5,0.5 Z" id="Rectangle-2-Copy-3"></path>
                        <path d="M26.5,12.5 L26.5,19.5 L35.5,19.5 L35.5,12.5 L26.5,12.5 Z" id="Rectangle-2-Copy-6"></path>
                    </g>
                </g>
            </g>
        </g>
    </g>
</svg>